<mxfile host="app.diagrams.net" modified="2023-11-29T09:47:58.939Z" agent="Mozilla/5.0 (Windows NT 10.0; Win64; x64) AppleWebKit/537.36 (KHTML, like Gecko) Chrome/119.0.0.0 Safari/537.36" etag="-oYOKyOA1uQTjPucN27Y" version="22.1.4" type="github">
  <diagram name="Page-1" id="hUjEpkly2eNINpmnEEEA">
    <mxGraphModel dx="4715" dy="1895" grid="1" gridSize="10" guides="1" tooltips="1" connect="1" arrows="1" fold="1" page="1" pageScale="1" pageWidth="827" pageHeight="1169" math="0" shadow="0">
      <root>
        <mxCell id="0" />
        <mxCell id="1" parent="0" />
        <mxCell id="NbQcgySadGwn3jhOum9s-8" value="&amp;lt;&amp;lt; abstract &amp;gt;&amp;gt;&lt;br&gt;RobotStore" style="swimlane;fontStyle=1;align=center;verticalAlign=middle;childLayout=stackLayout;horizontal=1;startSize=29;horizontalStack=0;resizeParent=1;resizeParentMax=0;resizeLast=0;collapsible=0;marginBottom=0;html=1;whiteSpace=wrap;" parent="1" vertex="1">
          <mxGeometry x="300" y="90" width="250" height="100" as="geometry" />
        </mxCell>
        <mxCell id="NbQcgySadGwn3jhOum9s-10" value="# createRobot(String type) : Robot&lt;br&gt;+ sellRobot(String type) : Robot" style="text;html=1;strokeColor=none;fillColor=none;align=left;verticalAlign=middle;spacingLeft=4;spacingRight=4;overflow=hidden;rotatable=0;points=[[0,0.5],[1,0.5]];portConstraint=eastwest;whiteSpace=wrap;" parent="NbQcgySadGwn3jhOum9s-8" vertex="1">
          <mxGeometry y="29" width="250" height="71" as="geometry" />
        </mxCell>
        <mxCell id="NbQcgySadGwn3jhOum9s-11" value="QuantumInnovationsRobotStore" style="swimlane;fontStyle=1;align=center;verticalAlign=middle;childLayout=stackLayout;horizontal=1;startSize=29;horizontalStack=0;resizeParent=1;resizeParentMax=0;resizeLast=0;collapsible=0;marginBottom=0;html=1;whiteSpace=wrap;" parent="1" vertex="1">
          <mxGeometry x="130" y="630" width="250" height="100" as="geometry" />
        </mxCell>
        <mxCell id="NbQcgySadGwn3jhOum9s-13" value="# createRobot(String type) : Robot (High-Tech Robot)" style="text;html=1;strokeColor=none;fillColor=none;align=left;verticalAlign=middle;spacingLeft=4;spacingRight=4;overflow=hidden;rotatable=0;points=[[0,0.5],[1,0.5]];portConstraint=eastwest;whiteSpace=wrap;" parent="NbQcgySadGwn3jhOum9s-11" vertex="1">
          <mxGeometry y="29" width="250" height="71" as="geometry" />
        </mxCell>
        <mxCell id="NbQcgySadGwn3jhOum9s-20" value="&amp;lt;&amp;lt; abstract &amp;gt;&amp;gt;&lt;br&gt;Robot" style="swimlane;fontStyle=1;align=center;verticalAlign=middle;childLayout=stackLayout;horizontal=1;startSize=29;horizontalStack=0;resizeParent=1;resizeParentMax=0;resizeLast=0;collapsible=0;marginBottom=0;html=1;whiteSpace=wrap;" parent="1" vertex="1">
          <mxGeometry x="810" y="90" width="250" height="210" as="geometry" />
        </mxCell>
        <mxCell id="NbQcgySadGwn3jhOum9s-22" value="- serialNumber : String&lt;br&gt;- model : String&lt;br&gt;- assembled : boolean&lt;br&gt;&lt;br&gt;start() : void&lt;br&gt;stop() : void&lt;br&gt;getSerialNumber() : String&lt;br&gt;getModel() : String&lt;br&gt;isAssembled() : boolean&lt;br&gt;setAssembled(boolean assembled) : void&amp;nbsp;" style="text;html=1;strokeColor=none;fillColor=none;align=left;verticalAlign=middle;spacingLeft=4;spacingRight=4;overflow=hidden;rotatable=0;points=[[0,0.5],[1,0.5]];portConstraint=eastwest;whiteSpace=wrap;" parent="NbQcgySadGwn3jhOum9s-20" vertex="1">
          <mxGeometry y="29" width="250" height="181" as="geometry" />
        </mxCell>
        <mxCell id="NbQcgySadGwn3jhOum9s-23" value="High-Tech Robot" style="swimlane;fontStyle=1;align=center;verticalAlign=middle;childLayout=stackLayout;horizontal=1;startSize=29;horizontalStack=0;resizeParent=1;resizeParentMax=0;resizeLast=0;collapsible=0;marginBottom=0;html=1;whiteSpace=wrap;" parent="1" vertex="1">
          <mxGeometry x="800" y="740" width="250" height="150" as="geometry" />
        </mxCell>
        <mxCell id="NbQcgySadGwn3jhOum9s-25" value="- wifiEnabled : boolean&lt;br&gt;&lt;br&gt;+ performedAdvancedSensorType() : void&lt;br&gt;+ isWifiEnabled() : boolean" style="text;html=1;strokeColor=none;fillColor=none;align=left;verticalAlign=middle;spacingLeft=4;spacingRight=4;overflow=hidden;rotatable=0;points=[[0,0.5],[1,0.5]];portConstraint=eastwest;whiteSpace=wrap;" parent="NbQcgySadGwn3jhOum9s-23" vertex="1">
          <mxGeometry y="29" width="250" height="121" as="geometry" />
        </mxCell>
        <mxCell id="NbQcgySadGwn3jhOum9s-30" value="&amp;lt;&amp;lt; interface &amp;gt;&amp;gt;&lt;br&gt;RobotPartsFactory" style="swimlane;fontStyle=1;align=center;verticalAlign=middle;childLayout=stackLayout;horizontal=1;startSize=29;horizontalStack=0;resizeParent=1;resizeParentMax=0;resizeLast=0;collapsible=0;marginBottom=0;html=1;whiteSpace=wrap;" parent="1" vertex="1">
          <mxGeometry x="1580" y="109" width="250" height="120" as="geometry" />
        </mxCell>
        <mxCell id="NbQcgySadGwn3jhOum9s-32" value="+ createRobotBody : RobotBody&lt;br&gt;+ createRobotArms: RobotArms&lt;br&gt;+ createRobotSensor: RobotSensor" style="text;html=1;strokeColor=none;fillColor=none;align=left;verticalAlign=middle;spacingLeft=4;spacingRight=4;overflow=hidden;rotatable=0;points=[[0,0.5],[1,0.5]];portConstraint=eastwest;whiteSpace=wrap;" parent="NbQcgySadGwn3jhOum9s-30" vertex="1">
          <mxGeometry y="29" width="250" height="91" as="geometry" />
        </mxCell>
        <mxCell id="NbQcgySadGwn3jhOum9s-36" value="RoboCraftPartsFactory" style="swimlane;fontStyle=1;align=center;verticalAlign=middle;childLayout=stackLayout;horizontal=1;startSize=29;horizontalStack=0;resizeParent=1;resizeParentMax=0;resizeLast=0;collapsible=0;marginBottom=0;html=1;whiteSpace=wrap;" parent="1" vertex="1">
          <mxGeometry x="1690" y="530" width="250" height="250" as="geometry" />
        </mxCell>
        <mxCell id="NbQcgySadGwn3jhOum9s-38" value="+ createRobotBody :&amp;nbsp;&lt;br&gt;&lt;span style=&quot;white-space: pre;&quot;&gt;&#x9;&lt;/span&gt;material : Solid and corrosion-resistant stainless steel&lt;br&gt;&lt;span style=&quot;white-space: pre;&quot;&gt;&#x9;&lt;/span&gt;design : Box-liked and rugged design&lt;br&gt;&lt;span style=&quot;white-space: pre;&quot;&gt;&#x9;&lt;/span&gt;powerSource : Wired power connection&lt;br&gt;+ createRobotArms: &lt;br&gt;&lt;span style=&quot;white-space: pre;&quot;&gt;&#x9;&lt;/span&gt;material: Heavy-duty steel&lt;br&gt;&lt;span style=&quot;white-space: pre;&quot;&gt;&#x9;&lt;/span&gt;degreesOfFreedom: 4&lt;br&gt;&lt;span style=&quot;white-space: pre;&quot;&gt;&#x9;&lt;/span&gt;payLoadCapacity: 50&lt;br&gt;+ createRobotSensor:&amp;nbsp;&lt;br&gt;&lt;span style=&quot;white-space: pre;&quot;&gt;&#x9;&lt;/span&gt;sensorTypes: Robust sensors, proximity sensors&lt;br&gt;&lt;span style=&quot;white-space: pre;&quot;&gt;&#x9;&lt;/span&gt;sensitivity: Moderate&lt;br&gt;&lt;span style=&quot;white-space: pre;&quot;&gt;&#x9;&lt;/span&gt;range: Sufficient-range&amp;nbsp;" style="text;html=1;strokeColor=none;fillColor=none;align=left;verticalAlign=middle;spacingLeft=4;spacingRight=4;overflow=hidden;rotatable=0;points=[[0,0.5],[1,0.5]];portConstraint=eastwest;whiteSpace=wrap;" parent="NbQcgySadGwn3jhOum9s-36" vertex="1">
          <mxGeometry y="29" width="250" height="221" as="geometry" />
        </mxCell>
        <mxCell id="Bde_iS7oefZhUgNLe-8d-2" style="edgeStyle=orthogonalEdgeStyle;rounded=0;orthogonalLoop=1;jettySize=auto;html=1;exitX=1;exitY=0.5;exitDx=0;exitDy=0;entryX=0;entryY=0.5;entryDx=0;entryDy=0;" parent="1" source="NbQcgySadGwn3jhOum9s-10" target="NbQcgySadGwn3jhOum9s-20" edge="1">
          <mxGeometry relative="1" as="geometry" />
        </mxCell>
        <mxCell id="Bde_iS7oefZhUgNLe-8d-3" style="edgeStyle=orthogonalEdgeStyle;rounded=0;orthogonalLoop=1;jettySize=auto;html=1;exitX=1;exitY=0.5;exitDx=0;exitDy=0;entryX=0;entryY=0.5;entryDx=0;entryDy=0;" parent="1" source="NbQcgySadGwn3jhOum9s-22" target="NbQcgySadGwn3jhOum9s-30" edge="1">
          <mxGeometry relative="1" as="geometry" />
        </mxCell>
        <mxCell id="Bde_iS7oefZhUgNLe-8d-4" style="edgeStyle=orthogonalEdgeStyle;rounded=0;orthogonalLoop=1;jettySize=auto;html=1;entryX=0.503;entryY=1.011;entryDx=0;entryDy=0;entryPerimeter=0;" parent="1" source="NbQcgySadGwn3jhOum9s-36" target="NbQcgySadGwn3jhOum9s-32" edge="1">
          <mxGeometry relative="1" as="geometry" />
        </mxCell>
        <mxCell id="Bde_iS7oefZhUgNLe-8d-5" value="RobotBody" style="swimlane;fontStyle=1;align=center;verticalAlign=middle;childLayout=stackLayout;horizontal=1;startSize=29;horizontalStack=0;resizeParent=1;resizeParentMax=0;resizeLast=0;collapsible=0;marginBottom=0;html=1;whiteSpace=wrap;" parent="1" vertex="1">
          <mxGeometry x="2090" y="100" width="250" height="120" as="geometry" />
        </mxCell>
        <mxCell id="Bde_iS7oefZhUgNLe-8d-6" value="&amp;lt;&amp;lt; get/set &amp;gt;&amp;gt; - material : String&lt;br&gt;&amp;lt;&amp;lt; get/set &amp;gt;&amp;gt; - design : String&lt;br&gt;&amp;lt;&amp;lt; get/set &amp;gt;&amp;gt; - powerSource : String" style="text;html=1;strokeColor=none;fillColor=none;align=left;verticalAlign=middle;spacingLeft=4;spacingRight=4;overflow=hidden;rotatable=0;points=[[0,0.5],[1,0.5]];portConstraint=eastwest;whiteSpace=wrap;" parent="Bde_iS7oefZhUgNLe-8d-5" vertex="1">
          <mxGeometry y="29" width="250" height="91" as="geometry" />
        </mxCell>
        <mxCell id="Bde_iS7oefZhUgNLe-8d-7" style="edgeStyle=orthogonalEdgeStyle;rounded=0;orthogonalLoop=1;jettySize=auto;html=1;exitX=1;exitY=0.5;exitDx=0;exitDy=0;entryX=0;entryY=0.5;entryDx=0;entryDy=0;endArrow=none;endFill=0;startArrow=classic;startFill=1;" parent="1" source="NbQcgySadGwn3jhOum9s-32" target="Bde_iS7oefZhUgNLe-8d-5" edge="1">
          <mxGeometry relative="1" as="geometry" />
        </mxCell>
        <mxCell id="Bde_iS7oefZhUgNLe-8d-8" value="RobotArms" style="swimlane;fontStyle=1;align=center;verticalAlign=middle;childLayout=stackLayout;horizontal=1;startSize=29;horizontalStack=0;resizeParent=1;resizeParentMax=0;resizeLast=0;collapsible=0;marginBottom=0;html=1;whiteSpace=wrap;" parent="1" vertex="1">
          <mxGeometry x="2090" y="260" width="250" height="120" as="geometry" />
        </mxCell>
        <mxCell id="Bde_iS7oefZhUgNLe-8d-9" value="&amp;lt;&amp;lt; get/set&amp;gt;&amp;gt; - material : String&lt;br style=&quot;border-color: var(--border-color);&quot;&gt;&amp;lt;&amp;lt;get/set&amp;gt;&amp;gt; - degressOfFreedom : int&lt;br style=&quot;border-color: var(--border-color);&quot;&gt;&amp;lt;&amp;lt;get/set&amp;gt;&amp;gt; - payloadCapacity : int" style="text;html=1;strokeColor=none;fillColor=none;align=left;verticalAlign=middle;spacingLeft=4;spacingRight=4;overflow=hidden;rotatable=0;points=[[0,0.5],[1,0.5]];portConstraint=eastwest;whiteSpace=wrap;" parent="Bde_iS7oefZhUgNLe-8d-8" vertex="1">
          <mxGeometry y="29" width="250" height="91" as="geometry" />
        </mxCell>
        <mxCell id="Bde_iS7oefZhUgNLe-8d-10" style="edgeStyle=orthogonalEdgeStyle;rounded=0;orthogonalLoop=1;jettySize=auto;html=1;exitX=0;exitY=0.5;exitDx=0;exitDy=0;entryX=1;entryY=0.5;entryDx=0;entryDy=0;" parent="1" source="Bde_iS7oefZhUgNLe-8d-9" target="NbQcgySadGwn3jhOum9s-32" edge="1">
          <mxGeometry relative="1" as="geometry" />
        </mxCell>
        <mxCell id="Bde_iS7oefZhUgNLe-8d-11" value="RobotSensor" style="swimlane;fontStyle=1;align=center;verticalAlign=middle;childLayout=stackLayout;horizontal=1;startSize=29;horizontalStack=0;resizeParent=1;resizeParentMax=0;resizeLast=0;collapsible=0;marginBottom=0;html=1;whiteSpace=wrap;" parent="1" vertex="1">
          <mxGeometry x="2090" y="440" width="250" height="120" as="geometry" />
        </mxCell>
        <mxCell id="Bde_iS7oefZhUgNLe-8d-12" value="&amp;lt;&amp;lt;get/set&amp;gt;&amp;gt; - sensorTypes : String&lt;br&gt;&amp;lt;&amp;lt;get/set&amp;gt;&amp;gt; - sensitivity : String&lt;br&gt;&amp;lt;&amp;lt;get/set&amp;gt;&amp;gt; - range : String" style="text;html=1;strokeColor=none;fillColor=none;align=left;verticalAlign=middle;spacingLeft=4;spacingRight=4;overflow=hidden;rotatable=0;points=[[0,0.5],[1,0.5]];portConstraint=eastwest;whiteSpace=wrap;" parent="Bde_iS7oefZhUgNLe-8d-11" vertex="1">
          <mxGeometry y="29" width="250" height="91" as="geometry" />
        </mxCell>
        <mxCell id="Bde_iS7oefZhUgNLe-8d-13" style="edgeStyle=orthogonalEdgeStyle;rounded=0;orthogonalLoop=1;jettySize=auto;html=1;entryX=1;entryY=0.5;entryDx=0;entryDy=0;" parent="1" source="Bde_iS7oefZhUgNLe-8d-12" target="NbQcgySadGwn3jhOum9s-32" edge="1">
          <mxGeometry relative="1" as="geometry" />
        </mxCell>
        <mxCell id="Bde_iS7oefZhUgNLe-8d-18" style="edgeStyle=orthogonalEdgeStyle;rounded=0;orthogonalLoop=1;jettySize=auto;html=1;" parent="1" source="Bde_iS7oefZhUgNLe-8d-14" edge="1">
          <mxGeometry relative="1" as="geometry">
            <mxPoint x="420" y="190" as="targetPoint" />
          </mxGeometry>
        </mxCell>
        <mxCell id="Bde_iS7oefZhUgNLe-8d-14" value="RoboCraftStore" style="swimlane;fontStyle=1;align=center;verticalAlign=middle;childLayout=stackLayout;horizontal=1;startSize=29;horizontalStack=0;resizeParent=1;resizeParentMax=0;resizeLast=0;collapsible=0;marginBottom=0;html=1;whiteSpace=wrap;" parent="1" vertex="1">
          <mxGeometry x="390" y="460" width="250" height="100" as="geometry" />
        </mxCell>
        <mxCell id="Bde_iS7oefZhUgNLe-8d-15" value="# createRobot(String type) : Robot (IndustrialRobot)" style="text;html=1;strokeColor=none;fillColor=none;align=left;verticalAlign=middle;spacingLeft=4;spacingRight=4;overflow=hidden;rotatable=0;points=[[0,0.5],[1,0.5]];portConstraint=eastwest;whiteSpace=wrap;" parent="Bde_iS7oefZhUgNLe-8d-14" vertex="1">
          <mxGeometry y="29" width="250" height="71" as="geometry" />
        </mxCell>
        <mxCell id="Bde_iS7oefZhUgNLe-8d-16" style="edgeStyle=orthogonalEdgeStyle;rounded=0;orthogonalLoop=1;jettySize=auto;html=1;entryX=0.476;entryY=0.993;entryDx=0;entryDy=0;entryPerimeter=0;" parent="1" source="NbQcgySadGwn3jhOum9s-11" target="NbQcgySadGwn3jhOum9s-10" edge="1">
          <mxGeometry relative="1" as="geometry" />
        </mxCell>
        <mxCell id="Bh0ntxsgNY0DjMAxqfud-18" style="edgeStyle=orthogonalEdgeStyle;rounded=0;orthogonalLoop=1;jettySize=auto;html=1;" edge="1" parent="1" source="Bde_iS7oefZhUgNLe-8d-21">
          <mxGeometry relative="1" as="geometry">
            <mxPoint x="940" y="300" as="targetPoint" />
          </mxGeometry>
        </mxCell>
        <mxCell id="Bde_iS7oefZhUgNLe-8d-21" value="Industrial Robot" style="swimlane;fontStyle=1;align=center;verticalAlign=middle;childLayout=stackLayout;horizontal=1;startSize=29;horizontalStack=0;resizeParent=1;resizeParentMax=0;resizeLast=0;collapsible=0;marginBottom=0;html=1;whiteSpace=wrap;" parent="1" vertex="1">
          <mxGeometry x="1040" y="380" width="250" height="120" as="geometry" />
        </mxCell>
        <mxCell id="Bde_iS7oefZhUgNLe-8d-23" value="- heavyDuty : boolean&lt;br&gt;&lt;br&gt;+ performHeavyDutyTask() : void&lt;br&gt;+ isHeavyDuty() : boolean" style="text;html=1;strokeColor=none;fillColor=none;align=left;verticalAlign=middle;spacingLeft=4;spacingRight=4;overflow=hidden;rotatable=0;points=[[0,0.5],[1,0.5]];portConstraint=eastwest;whiteSpace=wrap;" parent="Bde_iS7oefZhUgNLe-8d-21" vertex="1">
          <mxGeometry y="29" width="250" height="91" as="geometry" />
        </mxCell>
        <mxCell id="Bh0ntxsgNY0DjMAxqfud-1" value="QuantumInnovationPartsFactory" style="swimlane;fontStyle=1;align=center;verticalAlign=middle;childLayout=stackLayout;horizontal=1;startSize=29;horizontalStack=0;resizeParent=1;resizeParentMax=0;resizeLast=0;collapsible=0;marginBottom=0;html=1;whiteSpace=wrap;" vertex="1" parent="1">
          <mxGeometry x="1420" y="530" width="250" height="280" as="geometry" />
        </mxCell>
        <mxCell id="Bh0ntxsgNY0DjMAxqfud-2" value="+ createRobotBody :&amp;nbsp;&lt;br&gt;&lt;span style=&quot;white-space: pre;&quot;&gt;&#x9;&lt;/span&gt;material : Aerospace-grade alluminum alloy&lt;br&gt;&lt;span style=&quot;white-space: pre;&quot;&gt;&#x9;&lt;/span&gt;design : Sleek and aerodynamic design&lt;br&gt;&lt;span style=&quot;white-space: pre;&quot;&gt;&#x9;&lt;/span&gt;powerSource : High-capacity and rechargeable lithium-polymer batteries&lt;br&gt;+ createRobotArms:&lt;br&gt;&lt;span style=&quot;white-space: pre;&quot;&gt;&#x9;&lt;/span&gt;material: Lightweight and durable carbon fiber&lt;br&gt;&lt;span style=&quot;white-space: pre;&quot;&gt;&#x9;&lt;/span&gt;degreesOfFreedom: 6&lt;br&gt;&lt;span style=&quot;white-space: pre;&quot;&gt;&#x9;&lt;/span&gt;payloadCapacity: 10&lt;br&gt;+ createRobotSensors:&lt;br&gt;&lt;span style=&quot;white-space: pre;&quot;&gt;&#x9;&lt;/span&gt;sensorTypes: Advanced vision sensors with high-resolution cameras, LiDar, touch sensors&lt;br&gt;&lt;span style=&quot;white-space: pre;&quot;&gt;&#x9;&lt;/span&gt;sensitivity: High&lt;br&gt;&lt;span style=&quot;white-space: pre;&quot;&gt;&#x9;&lt;/span&gt;range: Extended-range" style="text;html=1;strokeColor=none;fillColor=none;align=left;verticalAlign=middle;spacingLeft=4;spacingRight=4;overflow=hidden;rotatable=0;points=[[0,0.5],[1,0.5]];portConstraint=eastwest;whiteSpace=wrap;" vertex="1" parent="Bh0ntxsgNY0DjMAxqfud-1">
          <mxGeometry y="29" width="250" height="251" as="geometry" />
        </mxCell>
        <mxCell id="Bh0ntxsgNY0DjMAxqfud-4" style="edgeStyle=orthogonalEdgeStyle;rounded=0;orthogonalLoop=1;jettySize=auto;html=1;entryX=0.5;entryY=0.989;entryDx=0;entryDy=0;entryPerimeter=0;" edge="1" parent="1" source="Bh0ntxsgNY0DjMAxqfud-1" target="NbQcgySadGwn3jhOum9s-32">
          <mxGeometry relative="1" as="geometry" />
        </mxCell>
        <mxCell id="Bh0ntxsgNY0DjMAxqfud-11" style="edgeStyle=orthogonalEdgeStyle;rounded=0;orthogonalLoop=1;jettySize=auto;html=1;entryX=0;entryY=0.5;entryDx=0;entryDy=0;" edge="1" parent="1" source="NbQcgySadGwn3jhOum9s-13" target="NbQcgySadGwn3jhOum9s-23">
          <mxGeometry relative="1" as="geometry" />
        </mxCell>
        <mxCell id="Bh0ntxsgNY0DjMAxqfud-15" style="edgeStyle=orthogonalEdgeStyle;rounded=0;orthogonalLoop=1;jettySize=auto;html=1;exitX=0.5;exitY=0;exitDx=0;exitDy=0;entryX=0.52;entryY=1;entryDx=0;entryDy=0;entryPerimeter=0;" edge="1" parent="1" source="NbQcgySadGwn3jhOum9s-23" target="NbQcgySadGwn3jhOum9s-22">
          <mxGeometry relative="1" as="geometry" />
        </mxCell>
        <mxCell id="Bh0ntxsgNY0DjMAxqfud-20" style="edgeStyle=orthogonalEdgeStyle;rounded=0;orthogonalLoop=1;jettySize=auto;html=1;exitX=1;exitY=0.5;exitDx=0;exitDy=0;" edge="1" parent="1" source="Bde_iS7oefZhUgNLe-8d-15" target="Bde_iS7oefZhUgNLe-8d-23">
          <mxGeometry relative="1" as="geometry" />
        </mxCell>
      </root>
    </mxGraphModel>
  </diagram>
</mxfile>
